<svg width="80" height="80" viewBox="0 0 80 80" fill="none" xmlns="http://www.w3.org/2000/svg">
<path d="M25.6 4.80005C14.1673 4.80005 4.80005 14.1673 4.80005 25.6V54.4001C4.80005 65.8328 14.1673 75.2001 25.6 75.2001H54.4001C65.8328 75.2001 75.2001 65.8328 75.2001 54.4001V25.6C75.2001 14.1673 65.8328 4.80005 54.4001 4.80005H25.6ZM25.6 8.00005H54.4001C64.0873 8.00005 72.0001 15.9128 72.0001 25.6V54.4001C72.0001 64.0873 64.0873 72.0001 54.4001 72.0001H25.6C15.9128 72.0001 8.00005 64.0873 8.00005 54.4001V25.6C8.00005 15.9128 15.9128 8.00005 25.6 8.00005ZM59.2001 17.6C57.44 17.6 56 19.04 56 20.8C56 22.56 57.44 24 59.2001 24C60.96 24 62.4001 22.56 62.4001 20.8C62.4001 19.04 60.96 17.6 59.2001 17.6ZM40 22.4C30.3273 22.4 22.4 30.3273 22.4 40C22.4 49.6728 30.3273 57.6 40 57.6C49.6728 57.6 57.6 49.6728 57.6 40C57.6 30.3273 49.6728 22.4 40 22.4ZM40 25.6C47.9273 25.6 54.4001 32.0728 54.4001 40C54.4001 47.9273 47.9273 54.4001 40 54.4001C32.0728 54.4001 25.6 47.9273 25.6 40C25.6 32.0728 32.0728 25.6 40 25.6Z" fill="white"/>
</svg>
