<svg width="80" height="80" viewBox="0 0 80 80" fill="none" xmlns="http://www.w3.org/2000/svg">
<path d="M71.0032 9.57819C70.2239 9.61238 69.4653 9.82927 68.7813 10.1032C68.1042 10.3753 64.2062 12.039 58.45 14.5001C52.6938 16.9611 45.2112 20.1659 37.7938 23.3438C22.959 29.6996 8.38128 35.9532 8.38128 35.9532L8.48753 35.9126C8.48753 35.9126 7.60769 36.2067 6.71565 36.8282C6.26963 37.139 5.78979 37.5402 5.3969 38.1251C5.00401 38.71 4.71678 39.5389 4.82503 40.4157C5.20522 43.4953 8.3969 44.3688 8.3969 44.3688L8.4094 44.3751L22.6532 49.2501C23.0163 50.4616 26.9733 63.6687 27.8438 66.4657C28.3245 68.012 28.7744 68.9041 29.2438 69.5126C29.4786 69.8171 29.7248 70.0527 29.9969 70.2251C30.105 70.2935 30.2187 70.3449 30.3313 70.3907C30.3337 70.3918 30.3351 70.3896 30.3375 70.3907C30.3514 70.3968 30.3644 70.3973 30.3782 70.4032L30.3407 70.3938C30.3668 70.4044 30.3926 70.4221 30.4188 70.4313C30.4696 70.4491 30.5007 70.4485 30.5657 70.4626C32.1969 71.0321 33.5469 69.9751 33.5469 69.9751L33.6032 69.9313L42.3532 61.8157L56.5532 72.8876L56.7313 72.9688C59.2168 74.0724 61.4646 73.4567 62.7094 72.4438C63.9542 71.4309 64.4438 70.1251 64.4438 70.1251L64.4969 69.9876L74.9313 15.6032C75.1983 14.3865 75.2362 13.3348 74.9844 12.3844C74.7326 11.4341 74.1208 10.608 73.3531 10.1501C72.5855 9.69217 71.7824 9.54401 71.0032 9.57819ZM71.0875 12.8313C71.404 12.8167 71.6386 12.8528 71.7125 12.8969C71.7865 12.941 71.8197 12.9352 71.8906 13.2032C71.9616 13.4711 72.0001 14.0355 71.8063 14.9188L71.8 14.9376L61.425 69.0063C61.4005 69.0607 61.1843 69.5609 60.6907 69.9626C60.1871 70.3723 59.627 70.6922 58.1407 70.0688L42.6125 57.9594L42.175 57.6157L42.1657 57.6251L37.5219 54.1407L63.6188 23.4376C63.8193 23.2023 63.9474 22.9139 63.9875 22.6073C64.0276 22.3008 63.9781 21.9892 63.8448 21.7102C63.7116 21.4312 63.5005 21.1968 63.2368 21.0353C62.9732 20.8738 62.6685 20.7921 62.3594 20.8001C62.0574 20.8079 61.7638 20.9011 61.5125 21.0688L23.75 46.2438L9.4844 41.3594C9.4844 41.3594 8.06783 40.5711 8.00003 40.0219C7.99627 39.9915 7.97954 40.0191 8.05315 39.9094C8.12676 39.7999 8.31179 39.6148 8.54378 39.4532C9.00774 39.1299 9.53753 38.9344 9.53753 38.9344L9.59065 38.9157L9.64378 38.8938C9.64378 38.8938 24.2223 32.6399 39.0563 26.2844C46.4733 23.1067 53.9546 19.9043 59.7094 17.4438C65.4627 14.984 69.6199 13.2135 69.9719 13.0719C70.3726 12.9115 70.771 12.846 71.0875 12.8313ZM53.7813 30.0688L33.9907 53.3532L33.9813 53.3626C33.9504 53.3998 33.9212 53.4383 33.8938 53.4782C33.8624 53.5215 33.8332 53.5663 33.8063 53.6126C33.6951 53.8013 33.6238 54.0108 33.5969 54.2282C33.5969 54.2324 33.5969 54.2365 33.5969 54.2407L31.0188 65.8344C30.9759 65.7092 30.9459 65.6634 30.9 65.5157V65.5126C30.0812 62.8814 26.3478 50.4258 25.8313 48.7032L53.7813 30.0688ZM36.225 57.1688L39.7813 59.8376L34.5563 64.6813L36.225 57.1688Z" fill="white"/>
</svg>
