<svg width="80" height="80" viewBox="0 0 80 80" fill="none" xmlns="http://www.w3.org/2000/svg">
<path d="M39.8 4C19.4949 4 3 20.4949 3 40.8C3 61.1051 19.4949 77.6 39.8 77.6C60.1051 77.6 76.6 61.1051 76.6 40.8C76.6 20.4949 60.1051 4 39.8 4ZM39.8 7.2C58.3757 7.2 73.4 22.2243 73.4 40.8C73.4 59.3757 58.3757 74.4 39.8 74.4C21.2243 74.4 6.2 59.3757 6.2 40.8C6.2 22.2243 21.2243 7.2 39.8 7.2ZM23.8031 29.6L17.3469 29.6031C17.3469 29.6031 16.9774 29.5823 16.5312 29.6406C16.0851 29.6989 15.4259 29.726 14.75 30.4906L14.7469 30.4938L14.7438 30.4969C14.1425 31.1844 14.1655 31.9847 14.2406 32.425C14.3155 32.8637 14.4831 33.1913 14.4844 33.1938V33.1969C14.5464 33.3492 19.2342 44.8351 25.1438 51.0063C29.3122 55.3621 33.7702 56.8 37.7406 56.8H39.8C40.4775 56.8 41.0826 56.7692 41.7531 56.4219C42.4236 56.0746 43 55.1161 43 54.3719C43 53.57 43.0197 52.7927 43.1219 52.3594C43.2173 51.9548 43.1805 52.0541 43.2188 52.0531C43.2571 52.0615 43.3269 52.0776 43.4594 52.1375C43.7448 52.2665 44.1858 52.5546 44.675 52.9344C45.6518 53.6927 46.8088 54.7929 48.1063 55.6438C49.9646 56.8754 51.9813 56.8 51.9813 56.8H58.6313L58.7031 56.7938C58.7031 56.7938 59.7235 56.7706 60.7719 56.1281C61.296 55.8069 61.919 55.2177 62.1281 54.3344C62.3373 53.4511 62.0702 52.5244 61.5563 51.7094C61.3685 51.4104 60.457 50.0894 56.8188 46.8594C55.8788 46.0257 55.2378 45.4356 54.9844 45.1219C54.8944 45.0105 54.8868 45.0212 54.8688 45.0156C54.8899 44.9609 55.1002 44.5183 55.6625 43.7875C56.2486 43.0259 57.1392 41.9647 58.2844 40.5063C59.744 38.6467 60.7681 36.8587 61.4125 35.35C61.7347 34.5956 61.9631 33.9111 62.1 33.2906C62.2369 32.6701 62.3461 32.1544 62.1437 31.4188C61.9928 30.8712 61.583 30.3808 61.1813 30.1219C60.7795 29.863 60.4049 29.7655 60.0688 29.7031C59.3964 29.5784 58.8031 29.6 58.25 29.6C57.0919 29.6 51.9437 29.6406 51.5187 29.6406C51.02 29.6406 50.2244 29.8483 49.8563 30.0594C48.9422 30.5828 48.6562 31.3 48.6562 31.3L48.5688 31.4531L48.5187 31.625C48.5187 31.625 47.3465 35.4173 46.1406 37.3719H46.1375C44.7196 39.6745 43.6619 40.5878 43.1969 40.8469C43.1475 40.8744 43.1748 40.8598 43.1406 40.8781C43.1042 40.7722 43.0584 40.6263 43.0281 40.3563C42.9601 39.7479 43 38.8912 43 38.0625C43 35.7674 43.1724 34.3363 42.9813 32.9813C42.8857 32.3037 42.6424 31.5492 42.0875 30.9688C41.5326 30.3883 40.8158 30.1026 40.1 29.9375H40.0969C39.3509 29.7657 38.547 29.6182 36.6156 29.6C34.1548 29.5771 32.5522 29.6533 31.1281 30.2875L31.1125 30.2969L31.1 30.3031C30.5373 30.5674 30.0938 30.8704 29.7031 31.275C29.5078 31.4773 29.2761 31.6246 29.1156 32.2688C29.0354 32.5908 29.0266 33.2001 29.3906 33.6938C29.7547 34.1874 30.2648 34.3362 30.5656 34.375C30.5101 34.3678 30.8023 34.4321 31.0281 34.5438C31.254 34.6554 31.4501 34.8162 31.5 34.8813V34.8844C31.4791 34.8573 31.696 35.3962 31.7531 35.8875C31.8102 36.3788 31.8 36.775 31.8 36.775L31.7969 36.8719L31.8062 36.9688C31.8062 36.9688 31.9045 38.0559 31.8531 39.1781C31.8274 39.7392 31.7565 40.304 31.6625 40.65C31.6575 40.6683 31.6553 40.6619 31.65 40.6781C31.2494 40.3984 30.3257 39.4235 29.0531 37.3219C27.8768 35.3778 26.775 31.8813 26.775 31.8813L26.75 31.8031L26.7219 31.7281C26.7219 31.7281 26.5165 30.947 25.6094 30.3094C24.7592 29.7109 23.95 29.6281 23.95 29.6281L23.8031 29.6ZM23.4312 32.8C23.5228 32.8335 23.7141 32.9024 23.75 32.9188L23.7125 32.8063C23.7125 32.8063 23.7618 32.9194 23.7625 32.9219C23.7629 32.9221 23.7686 32.9248 23.7688 32.925V32.9281H23.7719C23.6915 32.8719 23.7596 32.9277 23.7688 32.9406C23.8129 33.0914 24.7899 36.4567 26.3156 38.9781C27.7055 41.2735 28.7324 42.5595 29.8531 43.3281C30.9728 44.0961 32.4784 44.0169 33.2437 43.6188C34.2665 43.0876 34.5524 42.2146 34.75 41.4875C34.9476 40.7604 35.0181 40.0227 35.05 39.325C35.1109 37.9938 35.0067 36.9049 34.9969 36.7969C34.9985 36.7367 35.0127 36.2166 34.9312 35.5156C34.8491 34.8093 34.7019 33.9314 34.075 33.05C34.7772 32.9457 35.1671 32.7868 36.5844 32.8C38.3918 32.817 38.6667 32.8924 39.3781 33.0563C39.7655 33.1456 39.8086 33.2196 39.7719 33.1813C39.7352 33.1429 39.7687 33.1173 39.8125 33.4281C39.9002 34.0497 39.8 35.644 39.8 38.0625C39.8 38.7443 39.7342 39.7057 39.8469 40.7125C39.9595 41.7187 40.274 43.0061 41.4906 43.7594C42.1838 44.1884 43.5081 44.336 44.7563 43.6406C46.0044 42.9453 47.2852 41.6114 48.8625 39.05C50.4206 36.5245 51.3523 33.2041 51.4531 32.8531C51.4531 32.8531 51.4709 32.8416 51.4813 32.8344C51.5095 32.8357 51.4736 32.8406 51.5187 32.8406C52.1114 32.8406 57.1681 32.8 58.25 32.8C58.5477 32.8 58.6783 32.816 58.9 32.825C58.8104 33.1705 58.69 33.5727 58.4688 34.0906C57.9488 35.3079 57.0564 36.8868 55.7656 38.5313C54.6532 39.948 53.789 40.9756 53.1281 41.8344C52.4673 42.6932 51.9481 43.3706 51.7313 44.35C51.5144 45.3295 51.9281 46.4342 52.4938 47.1344C53.0594 47.8346 53.7593 48.4244 54.6938 49.2531C58.2139 52.3783 58.7914 53.3242 58.8469 53.4125V53.4156C58.9063 53.5099 58.8678 53.4151 58.8906 53.4625C58.691 53.5247 58.4535 53.5951 58.4313 53.6H51.9562H51.9469C51.9469 53.6 50.756 53.561 49.8719 52.975L49.8688 52.9719H49.8656C48.9303 52.3593 47.8 51.3087 46.6375 50.4063C46.0563 49.955 45.4645 49.5322 44.7781 49.2219C44.0918 48.9116 43.2218 48.6916 42.3063 48.9656C40.981 49.3623 40.2456 50.6235 40.0094 51.625C39.8398 52.344 39.8649 52.9692 39.8594 53.5969C39.8137 53.5993 39.8532 53.6 39.8 53.6H37.7406C34.4886 53.6 31.1054 52.6072 27.4563 48.7938C22.712 43.8394 18.4791 34.2586 17.8438 32.8031L23.4312 32.8ZM51.3406 32.8125C51.3116 32.819 51.3947 32.8252 51.4625 32.8313C51.4533 32.8362 51.4633 32.8268 51.45 32.8344C51.4487 32.8076 51.3797 32.8038 51.3406 32.8125Z" fill="white"/>
</svg>
